<svg width="594" height="239" viewBox="0 0 594 239" fill="none" xmlns="http://www.w3.org/2000/svg">
<path d="M221.894 3.03125H189.041V234.775H221.894V3.03125Z" fill="white"/>
<path d="M283.064 64.2656H250.211V234.777H283.064V64.2656Z" fill="white"/>
<path d="M266.535 40.402C276.91 40.402 286.096 31.9036 286.096 20.6815C286.096 9.45926 277.018 0.960938 266.535 0.960938C256.052 0.960938 246.975 9.78613 246.975 20.6815C246.975 31.5768 256.052 40.402 266.535 40.402Z" fill="white"/>
<path d="M372.233 238.041C409.304 238.041 443.132 223.659 443.132 185.852C443.132 148.045 422.597 145.539 395.362 139.002L363.479 131.811C345.862 127.889 338.405 120.698 338.405 108.822C338.405 96.9463 350.401 86.4868 372.557 86.4868C394.713 86.4868 408.007 93.3509 410.925 114.379H438.593C436.972 79.2959 412.546 60.8828 372.233 60.8828C331.92 60.8828 306.522 78.3153 306.522 109.367C306.522 140.419 320.788 148.699 352.671 156.217L384.23 163.408C400.117 167.003 409.628 172.56 409.628 186.397C409.628 200.234 393.308 212.328 372.557 212.328C351.806 212.328 333.865 204.81 331.272 183.782H301.658C302.631 220.826 331.596 237.932 372.233 237.932" fill="white"/>
<path d="M522.577 238.041C559.647 238.041 593.476 223.659 593.476 185.852C593.476 148.045 572.941 145.539 545.705 139.002L513.823 131.811C496.206 127.889 488.748 120.698 488.748 108.822C488.748 96.9463 500.745 86.4868 522.901 86.4868C545.057 86.4868 558.351 93.3509 561.269 114.379H588.937C587.315 79.2959 562.89 60.8828 522.577 60.8828C482.264 60.8828 456.865 78.3153 456.865 109.367C456.865 140.419 471.132 148.699 503.015 156.217L534.573 163.408C550.461 167.003 559.972 172.56 559.972 186.397C559.972 200.234 543.76 212.328 522.901 212.328C502.042 212.328 484.209 204.81 481.615 183.782H452.002C452.975 220.826 481.94 237.932 522.577 237.932" fill="white"/>
<path d="M85.1783 208.516C113.819 208.516 135.002 186.944 135.002 149.682C135.002 112.419 114.576 90.5199 84.8541 90.5199C55.1327 90.5199 34.0575 115.47 34.0575 142.055V156.328C34.0575 183.239 54.16 208.516 85.1783 208.516ZM0.769531 3.03042H34.0575V104.793C43.5684 77.5544 66.0486 60.5577 96.4185 60.5577C139.65 60.5577 169.587 95.4228 169.587 149.246C169.587 203.069 139.217 237.934 96.4185 237.934C53.6196 237.934 43.6764 220.61 34.0575 193.699V234.556H0.769531V2.8125V3.03042Z" fill="white"/>
</svg>
