<svg width="148" height="59" viewBox="0 0 148 59" fill="none" xmlns="http://www.w3.org/2000/svg">
<path d="M54.9535 0.51416H46.7891V58.105H54.9535V0.51416Z" fill="white"/>
<path d="M70.1566 15.731H61.9922V58.1051H70.1566V15.731Z" fill="white"/>
<path d="M66.0485 9.80155C68.6268 9.80155 70.9096 7.68961 70.9096 4.90077C70.9096 2.11193 68.6536 0 66.0485 0C63.4434 0 61.1875 2.19316 61.1875 4.90077C61.1875 7.60838 63.4434 9.80155 66.0485 9.80155Z" fill="white"/>
<path d="M92.3121 58.9174C101.525 58.9174 109.931 55.3433 109.931 45.9479C109.931 36.5525 104.828 35.9297 98.0598 34.3052L90.1365 32.5181C85.7586 31.5434 83.9053 29.7564 83.9053 26.8051C83.9053 23.8538 86.8867 21.2545 92.3927 21.2545C97.8987 21.2545 101.202 22.9603 101.927 28.186H108.803C108.4 19.4675 102.33 14.8916 92.3121 14.8916C82.2938 14.8916 75.9821 19.2238 75.9821 26.9405C75.9821 34.6572 79.5274 36.7149 87.4507 38.5832L95.2934 40.3702C99.2416 41.2637 101.605 42.6446 101.605 46.0833C101.605 49.5219 97.5495 52.5274 92.3927 52.5274C87.2358 52.5274 82.7773 50.6591 82.1327 45.4335H74.7734C75.0152 54.6393 82.2133 58.8903 92.3121 58.8903" fill="white"/>
<path d="M129.675 58.9174C138.888 58.9174 147.295 55.3433 147.295 45.9479C147.295 36.5525 142.191 35.9297 135.423 34.3052L127.5 32.5181C123.122 31.5434 121.269 29.7564 121.269 26.8051C121.269 23.8538 124.25 21.2545 129.756 21.2545C135.262 21.2545 138.566 22.9603 139.291 28.186H146.167C145.764 19.4675 139.694 14.8916 129.675 14.8916C119.657 14.8916 113.345 19.2238 113.345 26.9405C113.345 34.6572 116.891 36.7149 124.814 38.5832L132.657 40.3702C136.605 41.2637 138.968 42.6446 138.968 46.0833C138.968 49.5219 134.94 52.5274 129.756 52.5274C124.572 52.5274 120.141 50.6591 119.496 45.4335H112.137C112.378 54.6393 119.577 58.8903 129.675 58.8903" fill="white"/>
<path d="M20.9765 51.5801C28.0941 51.5801 33.3583 46.2191 33.3583 36.959C33.3583 27.699 28.2821 22.2567 20.896 22.2567C13.5099 22.2567 8.27244 28.4571 8.27244 35.0637V38.6107C8.27244 45.2985 13.2681 51.5801 20.9765 51.5801ZM0 0.514605H8.27244V25.8037C10.636 19.0347 16.2226 14.8108 23.7698 14.8108C34.5133 14.8108 41.9531 23.4751 41.9531 36.8507C41.9531 50.2263 34.4058 58.8907 23.7698 58.8907C13.1338 58.8907 10.6628 54.5856 8.27244 47.8978V58.0513H0V0.460449V0.514605Z" fill="white"/>
</svg>
