<svg width="30" height="30" viewBox="0 0 30 30" fill="none" xmlns="http://www.w3.org/2000/svg">
<rect x="0.5" y="0.5" width="29" height="29" rx="14.5" fill="white"/>
<rect x="0.5" y="0.5" width="29" height="29" rx="14.5" stroke="#A586F8"/>
<path d="M20.4005 21.1734C19.032 21.1734 17.6571 20.8552 16.2759 20.2188C14.8948 19.5824 13.6259 18.6847 12.469 17.5257C11.3123 16.3666 10.4158 15.0976 9.77941 13.7187C9.14302 12.3399 8.82483 10.9662 8.82483 9.59771C8.82483 9.37779 8.89745 9.19455 9.04269 9.04798C9.18792 8.90141 9.36947 8.82812 9.58733 8.82812H11.9558C12.1392 8.82812 12.3009 8.88798 12.4411 9.00768C12.5812 9.12726 12.6704 9.27503 12.7085 9.45101L13.1248 11.5876C13.1536 11.7859 13.1475 11.9563 13.1066 12.0987C13.0656 12.2412 12.992 12.3608 12.8859 12.4576L11.2087 14.0903C11.4786 14.5846 11.787 15.0522 12.1339 15.4931C12.4807 15.9339 12.8561 16.3549 13.2602 16.7561C13.6587 17.1547 14.0823 17.5248 14.5311 17.8665C14.9798 18.2081 15.4644 18.5261 15.9849 18.8203L17.6145 17.1766C17.7281 17.0583 17.8657 16.9754 18.0273 16.9279C18.1888 16.8804 18.3566 16.8688 18.5307 16.893L20.5472 17.3037C20.7305 17.3521 20.8802 17.4456 20.9961 17.5843C21.1121 17.7231 21.1701 17.8804 21.1701 18.0564V20.4109C21.1701 20.6287 21.0968 20.8103 20.9502 20.9555C20.8036 21.1007 20.6204 21.1734 20.4005 21.1734ZM10.6933 13.0596L11.9894 11.8195C12.0126 11.8008 12.0278 11.7752 12.0348 11.7427C12.0418 11.7101 12.0406 11.6799 12.0313 11.6519L11.7156 10.0291C11.7063 9.99191 11.69 9.96401 11.6668 9.94537C11.6435 9.92673 11.6133 9.91741 11.576 9.91741H10.023C9.99509 9.91741 9.97179 9.92673 9.95315 9.94537C9.93463 9.96401 9.92537 9.98731 9.92537 10.0153C9.96253 10.5115 10.0437 11.0156 10.169 11.5276C10.2942 12.0396 10.4689 12.5503 10.6933 13.0596ZM17.0112 19.3356C17.4925 19.5599 17.9946 19.7315 18.5173 19.8502C19.0402 19.9689 19.5287 20.0394 19.9829 20.0617C20.0109 20.0617 20.0342 20.0524 20.0528 20.0338C20.0715 20.0152 20.0808 19.9919 20.0808 19.9639V18.4362C20.0808 18.3989 20.0715 18.3686 20.0528 18.3454C20.0342 18.3222 20.0063 18.3059 19.9691 18.2966L18.4441 17.9865C18.4162 17.9772 18.3917 17.976 18.3708 17.983C18.3498 17.99 18.3277 18.0052 18.3043 18.0284L17.0112 19.3356Z" fill="#A586F8"/>
</svg>
