<svg width="34" height="34" viewBox="0 0 34 34" fill="none" xmlns="http://www.w3.org/2000/svg">
<rect width="34" height="34" rx="17" fill="#E0D5FD"/>
<path d="M19.5768 25.2145L15.7663 21.4039L16.7949 20.3751L19.5768 23.1571L25.1108 17.6231L26.1394 18.652L19.5768 25.2145ZM24.4575 15.8737H22.9933V11.2934C22.9933 11.2182 22.962 11.1494 22.8993 11.087C22.8369 11.0243 22.7681 10.993 22.6929 10.993H20.553V13.5458H11.7678V10.993H9.62788C9.55272 10.993 9.4839 11.0243 9.42143 11.087C9.35879 11.1494 9.32748 11.2182 9.32748 11.2934V24.3584C9.32748 24.4336 9.35879 24.5024 9.42143 24.5649C9.4839 24.6275 9.55272 24.6588 9.62788 24.6588H15.1843V26.123H9.62788C9.14112 26.123 8.72529 25.9507 8.38039 25.6059C8.03565 25.261 7.86328 24.8452 7.86328 24.3584V11.2934C7.86328 10.8066 8.03565 10.3908 8.38039 10.0459C8.72529 9.70118 9.14112 9.52881 9.62788 9.52881H13.9285C14.0637 9.05327 14.3399 8.65908 14.7572 8.34623C15.1745 8.03338 15.6422 7.87695 16.1604 7.87695C16.6986 7.87695 17.1738 8.03338 17.586 8.34623C17.9984 8.65908 18.2722 9.05327 18.4074 9.52881H22.6929C23.1797 9.52881 23.5955 9.70118 23.9404 10.0459C24.2851 10.3908 24.4575 10.8066 24.4575 11.2934V15.8737ZM16.1604 11.1057C16.4119 11.1057 16.6219 11.0216 16.7902 10.8532C16.9585 10.6848 17.0426 10.4748 17.0426 10.2233C17.0426 9.97181 16.9585 9.76186 16.7902 9.59348C16.6219 9.42526 16.4119 9.34115 16.1604 9.34115C15.9089 9.34115 15.6989 9.42526 15.5305 9.59348C15.3623 9.76186 15.2782 9.97181 15.2782 10.2233C15.2782 10.4748 15.3623 10.6848 15.5305 10.8532C15.6989 11.0216 15.9089 11.1057 16.1604 11.1057Z" fill="#555555"/>
</svg>
