<svg width="117" height="47" viewBox="0 0 117 47" fill="none" xmlns="http://www.w3.org/2000/svg">
<g clip-path="url(#clip0_2979_1515)">
<path fill-rule="evenodd" clip-rule="evenodd" d="M10.0367 25.9965C6.91546 25.9965 3.29703 27.4881 1.3359 29.0349L3.1313 32.7914C4.70573 31.3551 7.24691 30.1398 9.5395 30.1398C11.7216 30.1398 12.9093 30.8579 12.9093 32.3219C12.9093 33.3163 12.1083 33.8134 10.6167 34.0068C4.98195 34.725 0.5625 36.2718 0.5625 40.6083C0.5625 44.0334 3.02082 46.1327 6.83259 46.1327C9.56712 46.1327 11.9978 44.6135 13.1579 42.6247V45.5802H18.2403V33.1781C18.2403 28.0682 14.6771 25.9965 10.0367 25.9965ZM8.1308 42.1551C6.69448 42.1551 5.97632 41.4646 5.97632 40.3045C5.97632 38.15 8.3794 37.4319 12.7712 36.9623C12.7988 39.8349 10.8377 42.1551 8.1308 42.1551ZM66.1637 29.7531V26.549H61.0813V45.5802H66.5228V36.4099C66.5228 32.0457 69.1468 30.7751 70.9974 30.7751C71.7156 30.7751 72.6824 30.996 73.3176 31.4656L74.312 26.4385C73.4834 26.0794 72.5995 25.9965 71.8813 25.9965C69.0916 25.9965 67.3238 27.2395 66.1637 29.7531ZM99.5581 25.9965C96.6855 25.9965 94.531 27.7091 93.3985 29.3387C92.3489 27.2119 90.1668 25.9965 87.5151 25.9965C84.6425 25.9965 82.6537 27.5986 81.7146 29.4216V26.549H76.4665V45.5802H81.908V35.7746C81.908 32.2666 83.7586 30.5817 85.4711 30.5817C87.0179 30.5817 88.4543 31.5761 88.4543 34.1725V45.5802H93.9233V35.7746C93.9233 32.2114 95.7187 30.5817 97.5141 30.5817C98.9504 30.5817 100.47 31.6313 100.47 34.1449V45.5802H105.911V32.4324C105.911 28.151 103.038 25.9965 99.5581 25.9965ZM37.4649 25.1403V26.549H29.206V24.6155C29.206 22.1019 30.6424 21.3837 31.8853 21.3837C32.6035 21.3837 33.5426 21.5495 34.316 21.9914L36.0009 18.152C35.0066 17.572 33.3769 17.0472 31.1948 17.0472C27.7145 17.0472 23.7646 19.0083 23.7646 25.1679V26.5766H20.6157V30.7751H23.7646V45.5802H29.206V30.7474H37.4649V45.5802H42.9063V30.7474H47.8506V26.549H42.9063V24.6155C42.9063 22.1019 44.3427 21.3837 45.5856 21.3837C46.9667 21.3837 48.0163 21.9914 48.0163 21.9914L49.7012 18.152C49.7012 18.152 47.9887 17.0472 44.8951 17.0472C41.4424 17.0195 37.4649 18.9807 37.4649 25.1403ZM51.0823 26.549H56.5238V45.5802H51.0823V26.549Z" fill="#555555"/>
<path fill-rule="evenodd" clip-rule="evenodd" d="M82.7893 0C68.0947 0 55.0021 10.1924 51.3008 23.3126H56.6317C59.7254 13.5346 70.2492 4.97188 82.7893 4.97188C98.0364 4.97188 111.184 16.5729 111.184 34.6374C111.184 38.6978 110.659 42.3438 109.665 45.5756H114.83L114.886 45.4098C115.742 42.0676 116.156 38.4492 116.156 34.6374C116.156 14.5013 101.489 0 82.7893 0Z" fill="#555555"/>
</g>
<defs>
<clipPath id="clip0_2979_1515">
<rect width="116.01" height="46.128" fill="white" transform="translate(0.5625)"/>
</clipPath>
</defs>
</svg>
