<svg width="137" height="41" viewBox="0 0 137 41" fill="none" xmlns="http://www.w3.org/2000/svg">
<g clip-path="url(#clip0_2979_1499)">
<path d="M0.125 0.334998C3.61894 0.249497 6.57509 2.92855 6.83774 6.42955C7.25387 11.9792 6.51256 18.0441 6.83432 23.6473C7.2425 30.7508 11.7597 37.1782 18.3178 39.8367C10.2635 40.6461 2.75938 34.9768 0.725326 27.2646L0.125 24.0474L0.125 0.334998Z" fill="#555555"/>
<path d="M136.572 8.31829V9.80032C136.102 15.1185 132.187 17.5217 127.197 17.785C125.959 17.85 123.704 17.9252 122.525 17.785C122.359 17.7656 122.233 17.7713 122.133 17.6083V0.452148H128.67C129.256 0.452148 130.857 0.954898 131.454 1.19544C134.452 2.40044 136.292 5.10571 136.572 8.31829ZM125.089 15.0444H128.443C128.747 15.0444 130.018 14.6123 130.36 14.4584C134.311 12.68 134.443 6.23889 130.924 4.00673C130.442 3.70121 128.967 3.0742 128.443 3.0742H125.089V15.0444Z" fill="#555555"/>
<path d="M63.5657 40.1266H62.7698C55.1498 39.9773 50.5757 30.9609 55.8377 25.0248C59.111 21.3311 65.6157 20.858 69.1165 24.4502L67.602 26.4441C64.2252 23.2292 58.1685 24.2758 56.9132 29.0673C55.1373 35.847 62.7812 39.9773 67.9431 35.9097L69.2051 37.7258C69.2643 37.9492 68.0113 38.7757 67.7634 38.9194C66.5582 39.6182 65.1484 40.0149 63.7465 40.0195L63.5657 40.1255V40.1266Z" fill="#555555"/>
<path d="M40.3731 1.59082V24.2191C38.2037 43.7545 10.8616 43.2939 9.10156 23.7688L9.10725 1.59082C11.6677 2.07647 13.3789 4.18779 13.546 6.77222C13.9064 12.323 13.1378 18.3503 13.5358 23.8828C13.9337 29.4153 18.5192 33.9629 23.8243 34.3151C30.6303 34.7666 35.8331 29.6946 36.0093 22.9468C36.1424 17.8452 35.7251 12.6775 35.932 7.57023C35.9787 6.43363 36.0628 5.37683 36.5778 4.34055C37.2805 2.9292 38.7961 1.79146 40.3719 1.59082H40.3731Z" fill="#555555"/>
<path d="M71.6484 -0.00292969L84.4395 11.7393L84.3826 0.453079H87.3388V18.3514L74.4909 6.8372V17.7814H71.6484V-0.00292969Z" fill="#555555"/>
<path d="M100.062 39.6694V22.4551H106.828C107.681 22.4551 109.895 23.3694 110.672 23.8448C115.726 26.9456 115.706 35.2723 110.558 38.2786C107.361 40.1459 103.605 39.5896 100.062 39.6683V39.6694ZM102.905 37.0473H106.259C106.573 37.0473 107.589 36.7008 107.937 36.564C113.547 34.3649 111.853 24.9631 105.918 24.9631H103.075L102.905 37.0473Z" fill="#555555"/>
<path d="M77.0417 22.4541C79.6192 22.7026 82.1672 24.1505 82.4412 26.9583C82.7357 29.9805 80.8324 32.1773 78.0081 32.8853L84.7163 39.6684H80.7937L74.8576 33.3082L74.3698 33.2843V39.6684H71.5273V22.4541C73.301 22.5795 75.2953 22.2854 77.0417 22.4541ZM74.3698 30.7763H76.4732C77.816 30.7763 79.4089 29.3729 79.4885 27.9787C79.6192 25.6872 77.5681 25.0283 75.6819 24.9565C75.2805 24.9416 74.654 24.8607 74.3698 25.132V30.7751V30.7763Z" fill="#555555"/>
<path d="M57.4366 0.452148V11.6814C57.4366 12.5067 58.0574 14.0743 58.685 14.6477C60.1426 15.9792 63.9583 15.749 65.5092 14.5314V0.452148H68.4653V15.6714C65.7059 18.5933 58.5975 19.2203 55.9006 16.0716C55.2479 15.31 54.4805 13.4712 54.4805 12.4794V0.452148H57.4366Z" fill="#555555"/>
<path d="M119.513 0.452148V3.0742H112.521L112.35 3.2452V7.17827H117.978L118.149 7.34927V9.74332L117.978 9.91432H112.35V15.0444H120.195V17.6665H109.508V0.452148H119.513Z" fill="#555555"/>
<path d="M96.4347 22.4551V24.9631H89.556L89.3854 25.1341V29.1812H95.0703V31.8032H89.3854V37.0473H97.2306V39.6694H86.543V22.4551H96.4347Z" fill="#555555"/>
<path d="M108.028 0.452148V3.0742H102.912V17.7805H100.07V3.2452L99.899 3.0742H94.9531V0.452148H108.028Z" fill="#555555"/>
<path d="M135.427 22.4551V24.9631C133.939 25.1079 132.164 24.7853 130.703 24.9574C130.537 24.9768 130.41 24.9711 130.31 25.1341V39.6694H127.468V25.1341L127.297 24.9631H122.352V22.4551H135.427Z" fill="#555555"/>
<path d="M93.4718 0.452148V17.7805H90.6862L90.5156 17.6095V0.452148H93.4718Z" fill="#555555"/>
<path d="M119.964 22.4551H117.121V39.6694H119.964V22.4551Z" fill="#555555"/>
</g>
<defs>
<clipPath id="clip0_2979_1499">
<rect width="136.438" height="40.1287" fill="white" transform="translate(0.125 -0.000976562)"/>
</clipPath>
</defs>
</svg>
