<svg width="34" height="34" viewBox="0 0 34 34" fill="none" xmlns="http://www.w3.org/2000/svg">
<rect width="34" height="34" rx="17" fill="#E0D5FD"/>
<path d="M8.875 13.875H25.125M8.875 14.5H25.125M11.375 18.875H16.375M11.375 20.75H13.875M10.75 23.25H23.25C23.7473 23.25 24.2242 23.0525 24.5758 22.7008C24.9275 22.3492 25.125 21.8723 25.125 21.375V12.625C25.125 12.1277 24.9275 11.6508 24.5758 11.2992C24.2242 10.9475 23.7473 10.75 23.25 10.75H10.75C10.2527 10.75 9.77581 10.9475 9.42417 11.2992C9.07254 11.6508 8.875 12.1277 8.875 12.625V21.375C8.875 21.8723 9.07254 22.3492 9.42417 22.7008C9.77581 23.0525 10.2527 23.25 10.75 23.25Z" stroke="#555555" stroke-width="1.25" stroke-linecap="round" stroke-linejoin="round"/>
</svg>
