<svg width="225" height="31" viewBox="0 0 225 31" fill="none" xmlns="http://www.w3.org/2000/svg">
<path d="M30.4695 17.2988C33.2928 14.9046 33.0638 6.8244 29.9354 8.99409C25.6243 11.9868 21.1987 15.2413 18.3374 16.9247C13.95 19.5059 8.83768 21.7129 5.09884 22.9474C4.0306 23.3215 3.83984 23.3215 3.83984 23.5086C3.83984 23.6956 4.18321 23.733 5.09884 23.6582C11.3557 23.2841 18.7952 22.1993 25.1665 20.0296C28.066 19.057 29.0198 18.5332 30.4695 17.2988Z" fill="#555555"/>
<path d="M31.9994 27.6248C36.7683 25.6048 38.7903 17.7864 34.7844 19.2827C29.138 21.3776 21.5459 23.1358 17.9596 23.8092C11.8936 24.894 5.48412 25.0436 1.21116 24.894C0.600733 24.8566 0.104764 24.7818 0.0284609 25.0062C-0.047842 25.1933 0.371824 25.3803 1.0204 25.6796C6.13269 28.0363 14.7931 29.5326 24.102 29.0837C28.375 28.8967 30.3589 28.2982 31.9994 27.6248Z" fill="#555555"/>
<path d="M24.8994 8.58316C26.8451 4.65527 23.3352 -1.33008 22.0381 1.06406C20.0923 4.65527 16.3535 9.59318 14.9419 11.501C12.6909 14.4563 10.2111 17.3741 7.99832 19.5064C7.42605 20.0675 7.08269 20.3294 7.15899 20.479C7.27344 20.6287 7.5405 20.479 8.15093 20.2172C12.7291 18.1971 17.6506 15.4663 21.4658 12.4362C23.7167 10.678 24.2127 10.0047 24.8994 8.58316Z" fill="#555555"/>
<path d="M224.738 12.9605V10.3793H218.328V4.6558H215.581V10.3793H212.911V12.9605H215.581V24.2204C215.581 25.1182 215.734 25.9412 216.001 26.6145C216.306 27.2879 216.688 27.8864 217.222 28.3353C217.756 28.7842 218.366 29.1209 219.053 29.3454C219.74 29.5324 220.465 29.6446 221.228 29.6446C221.838 29.6446 222.41 29.5698 222.906 29.4576C223.402 29.3454 223.898 29.1583 224.432 28.9339L224.738 28.8216V26.1282L224.051 26.4275C223.555 26.6519 223.097 26.7642 222.754 26.8764C222.372 26.9512 221.991 26.9886 221.571 26.9886C220.617 26.9886 219.816 26.7642 219.244 26.3153C218.71 25.9038 218.404 25.1182 218.404 23.9959V12.9231H224.738V12.9605ZM206.806 6.67585H210.011V3.3465H206.806V6.67585ZM206.997 29.3454H209.744V10.4167H206.997V29.3454ZM200.13 19.9184C200.13 21.0033 199.939 21.9759 199.558 22.8737C199.176 23.7341 198.642 24.5197 197.993 25.1556C197.345 25.7916 196.582 26.2779 195.743 26.6519C194.064 27.3627 192.194 27.3253 190.592 26.6519C189.791 26.3153 189.066 25.829 188.456 25.2304C187.845 24.5945 187.349 23.8463 187.006 22.9485C186.662 22.0507 186.472 21.0407 186.472 19.9184V19.8436C186.472 18.7214 186.662 17.6739 187.006 16.8135C187.349 15.9157 187.845 15.1676 188.417 14.569C189.028 13.9705 189.715 13.4842 190.554 13.1849C191.355 12.8482 192.271 12.6986 193.186 12.6986C194.064 12.6986 194.941 12.8856 195.781 13.2223C196.62 13.559 197.383 14.0827 198.032 14.6813C198.68 15.3172 199.214 16.0654 199.596 16.9632C199.977 17.861 200.168 18.8336 200.168 19.9184H200.13ZM200.015 13.2971C199.863 13.1475 199.71 12.9605 199.558 12.8108C199.024 12.2497 198.451 11.8008 197.803 11.3519C197.154 10.9404 196.429 10.6037 195.628 10.3419C194.827 10.08 193.911 9.96779 192.957 9.96779C191.813 9.96779 190.63 10.1922 189.524 10.6411C188.417 11.09 187.387 11.7634 186.51 12.6238C185.632 13.4842 184.908 14.5316 184.373 15.7287C183.839 16.9632 183.572 18.3473 183.572 19.8436V19.9184C183.572 21.4522 183.839 22.8363 184.373 24.0334C184.908 25.2304 185.632 26.2779 186.51 27.1383C187.387 27.9613 188.417 28.6346 189.524 29.0835C190.63 29.5324 191.813 29.7569 192.957 29.7569C193.911 29.7569 194.827 29.6072 195.628 29.3454C196.429 29.0835 197.154 28.7468 197.803 28.3353C198.451 27.9238 199.024 27.4001 199.558 26.839C199.71 26.6519 199.863 26.4649 200.015 26.2779V29.3079H202.762V2.63574H200.015V13.2971ZM166.595 18.5343C166.709 17.7862 166.9 17.1128 167.167 16.4395C167.51 15.6539 167.968 14.9431 168.541 14.3446C169.075 13.7835 169.723 13.3345 170.448 12.9979C171.173 12.6612 171.974 12.5116 172.814 12.5116C173.767 12.5116 174.645 12.6986 175.37 13.0353C176.095 13.372 176.705 13.8583 177.201 14.4568C177.697 15.0553 178.117 15.7661 178.384 16.5143C178.613 17.1502 178.765 17.7862 178.841 18.4969H166.595V18.5343ZM179.376 12.8482C178.613 11.9504 177.659 11.2397 176.552 10.716C175.446 10.1922 174.225 9.93039 172.852 9.93039C171.555 9.93039 170.296 10.1922 169.189 10.716C168.083 11.2397 167.091 11.9504 166.29 12.8482C165.488 13.746 164.84 14.7935 164.344 15.9905C163.886 17.1876 163.657 18.4595 163.657 19.8062V19.881C163.657 21.3399 163.924 22.6867 164.42 23.9211C164.916 25.1182 165.603 26.1656 166.48 27.026C167.358 27.8864 168.388 28.5598 169.532 29.0461C170.677 29.5324 171.898 29.7569 173.157 29.7569C174.988 29.7569 176.552 29.4202 177.811 28.7468C179.032 28.0735 180.139 27.2131 181.131 26.2031L181.474 25.829L179.49 24.1456L179.147 24.4823C178.422 25.2304 177.582 25.8664 176.629 26.3901C175.713 26.8764 174.568 27.1383 173.233 27.1383C172.394 27.1383 171.555 26.9886 170.791 26.6894C170.028 26.3901 169.342 25.9786 168.731 25.4175C168.121 24.8563 167.625 24.1456 167.205 23.36C166.862 22.6867 166.633 21.9385 166.557 21.0781H181.626L181.703 20.6666C181.741 20.4796 181.741 20.3673 181.741 20.2551V19.881C181.741 18.4969 181.55 17.1876 181.131 15.9905C180.711 14.7935 180.139 13.746 179.376 12.8482ZM163.695 10.1174H163.199C162.246 10.08 161.292 10.2297 160.452 10.4915C159.575 10.7534 158.774 11.1274 158.011 11.6512C157.286 12.1749 156.599 12.7734 156.027 13.4842C155.874 13.6712 155.722 13.8957 155.569 14.1201V10.4167H152.822V29.3454H155.569V21.4896C155.569 20.1055 155.76 18.871 156.179 17.8236C156.599 16.7761 157.133 15.8783 157.82 15.1676C158.507 14.4568 159.308 13.9331 160.185 13.559C161.063 13.1849 162.017 12.9979 163.009 12.9979H163.695V10.1174ZM148.13 23.4348C146.909 24.6319 145.65 25.5671 144.353 26.2031C143.094 26.839 141.567 27.1383 139.851 27.1383C138.401 27.1383 137.066 26.8764 135.845 26.3153C134.624 25.7541 133.556 25.006 132.64 24.0708C132.03 23.3974 131.457 22.6492 131.038 21.8263C130.885 21.527 130.732 21.2277 130.618 20.8911C130.084 19.5443 129.779 18.0854 129.779 16.5517V16.4769C129.779 14.9431 130.046 13.4842 130.58 12.1375C130.694 11.8008 130.847 11.5015 131 11.2023C131.457 10.3793 131.991 9.63112 132.602 8.95777C133.479 8.02255 134.586 7.27439 135.807 6.71326C137.027 6.18954 138.363 5.92768 139.813 5.92768C140.69 5.92768 141.529 6.0025 142.292 6.18954C143.055 6.37659 143.78 6.60103 144.429 6.9003C145.077 7.19957 145.688 7.57365 146.26 7.98514C146.832 8.43404 147.405 8.88294 147.939 9.40666L148.282 9.74334L150.304 7.68588L149.923 7.3492C149.274 6.75066 148.587 6.18954 147.862 5.70323C147.176 5.21692 146.413 4.76802 145.573 4.39393C144.772 4.01985 143.895 3.75799 142.941 3.53354C141.987 3.3465 140.919 3.23427 139.774 3.23427C137.905 3.23427 136.112 3.57095 134.548 4.28171C132.983 4.95506 131.572 5.92768 130.427 7.12475C129.283 8.32182 128.367 9.74334 127.719 11.3519C127.07 12.9605 126.727 14.6813 126.727 16.4769V16.5517C126.727 18.3473 127.07 20.1055 127.68 21.6766C128.329 23.2852 129.245 24.6693 130.389 25.8664C131.534 27.0634 132.945 27.9986 134.509 28.672C136.112 29.3454 137.829 29.682 139.698 29.682C140.843 29.682 141.911 29.5698 142.865 29.3454C143.818 29.1209 144.734 28.8216 145.573 28.4476C146.413 28.0735 147.176 27.5872 147.939 27.026C148.664 26.5023 149.35 25.9038 150.037 25.2304L150.419 24.8938L148.435 23.0233L148.13 23.4348Z" fill="#555555"/>
<path d="M56.7964 29.9428C48.8227 29.9428 42.8711 23.92 42.8711 16.2513V16.1765C42.8711 8.61995 48.6701 2.41016 57.0253 2.41016C62.1376 2.41016 65.1897 4.09354 67.7077 6.52508L63.9307 10.8271C61.8324 8.95663 59.6959 7.83438 56.9871 7.83438C52.409 7.83438 49.1279 11.5752 49.1279 16.1016V16.1765C49.1279 20.7403 52.3327 24.5185 56.9871 24.5185C60.0774 24.5185 61.985 23.3215 64.1214 21.4136L67.9366 25.1545C65.1134 28.1097 62.0231 29.9428 56.7964 29.9428Z" fill="#555555"/>
<path d="M82.325 21.2627C81.3331 20.8138 79.9978 20.5145 78.548 20.5145C76.03 20.5145 74.4658 21.4871 74.4658 23.3201V23.395C74.4658 24.9661 75.763 25.8639 77.6705 25.8639C80.4174 25.8639 82.2869 24.3676 82.2869 22.3101V21.2627H82.325ZM82.2106 29.4925V27.2854C80.7608 28.8566 78.8151 29.8666 75.9156 29.8666C71.986 29.8666 68.7812 27.6595 68.7812 23.6194V23.5446C68.7812 19.093 72.2149 17.0355 77.1364 17.0355C79.2347 17.0355 80.7227 17.3722 82.2106 17.8585V17.5218C82.2106 15.1277 80.6845 13.781 77.7468 13.781C75.4959 13.781 73.8935 14.1925 72.0241 14.8658L70.5362 10.4516C72.8253 9.47901 75.0762 8.80566 78.5862 8.80566C85.0338 8.80566 87.857 12.0602 87.857 17.5966V29.4177H82.2106V29.4925Z" fill="#555555"/>
<path d="M102.466 14.7904C98.5367 14.7904 96.1331 17.1097 96.1331 21.9728V29.4919H90.2578V9.10429H96.1331V13.2192C97.3158 10.4136 99.2616 8.58057 102.771 8.7302V14.753H102.466V14.7904Z" fill="#555555"/>
<path d="M113.485 13.3698C111.044 13.3698 109.441 15.0906 108.984 17.7092H117.873C117.491 15.128 115.965 13.3698 113.485 13.3698ZM123.519 21.3004H109.06C109.632 23.919 111.502 25.3031 114.134 25.3031C116.118 25.3031 117.529 24.7045 119.17 23.2082L122.527 26.1261C120.582 28.4828 117.797 29.9417 114.058 29.9417C107.839 29.9417 103.223 25.6398 103.223 19.43V19.3551C103.223 13.5568 107.457 8.76855 113.485 8.76855C120.429 8.76855 123.596 14.0431 123.596 19.8415V19.9163C123.596 20.44 123.557 20.7767 123.519 21.3004Z" fill="#555555"/>
</svg>
