<svg width="102" height="97" viewBox="0 0 102 97" fill="none" xmlns="http://www.w3.org/2000/svg">
<path d="M48.3078 2.61652C48.541 2.04787 48.938 1.56141 49.4483 1.21904C49.9587 0.876663 50.5594 0.693848 51.174 0.693848C51.7886 0.693848 52.3893 0.876663 52.8997 1.21904C53.41 1.56141 53.8071 2.04787 54.0402 2.61652L65.7529 30.7877C65.9721 31.3148 66.3326 31.7712 66.7945 32.1067C67.2564 32.4422 67.8019 32.6438 68.371 32.6893L98.7855 35.1255C101.536 35.346 102.649 38.7799 100.555 40.5712L77.3829 60.425C76.95 60.7953 76.6274 61.2777 76.4504 61.8192C76.2735 62.3608 76.249 62.9406 76.3798 63.4951L83.4625 93.1765C83.6049 93.772 83.5676 94.3963 83.3553 94.9706C83.143 95.5449 82.7653 96.0434 82.2699 96.4032C81.7745 96.7629 81.1836 96.9678 80.5718 96.992C79.96 97.0161 79.3548 96.8584 78.8325 96.5387L52.789 80.637C52.3027 80.3399 51.7439 80.1827 51.174 80.1827C50.6041 80.1827 50.0453 80.3399 49.559 80.637L23.5155 96.5442C22.9932 96.8639 22.388 97.0216 21.7762 96.9975C21.1644 96.9733 20.5735 96.7685 20.0781 96.4087C19.5827 96.0489 19.205 95.5504 18.9927 94.9761C18.7804 94.4018 18.7431 93.7775 18.8855 93.182L25.9682 63.4951C26.0996 62.9406 26.0754 62.3606 25.8985 61.8189C25.7215 61.2773 25.3985 60.7949 24.9651 60.425L1.7932 40.5712C1.32658 40.1735 0.988502 39.6462 0.821785 39.0561C0.655067 38.4661 0.667208 37.8398 0.856671 37.2567C1.04613 36.6735 1.40439 36.1597 1.88608 35.7803C2.36776 35.401 2.9512 35.1731 3.56251 35.1255L33.977 32.6893C34.5461 32.6438 35.0916 32.4422 35.5535 32.1067C36.0154 31.7712 36.3759 31.3148 36.5951 30.7877L48.3078 2.61652Z" fill="#C8D6B2"/>
</svg>
