<svg width="30" height="31" viewBox="0 0 30 31" fill="none" xmlns="http://www.w3.org/2000/svg">
<circle cx="15" cy="15.0801" r="12" fill="#DFE9CF"/>
<path d="M11.25 16.0176L14.0625 18.8301L18.75 12.2676M26.25 15.0801C26.25 16.5574 25.959 18.0204 25.3936 19.3853C24.8283 20.7502 23.9996 21.9904 22.955 23.035C21.9103 24.0797 20.6701 24.9084 19.3052 25.4737C17.9403 26.0391 16.4774 26.3301 15 26.3301C13.5226 26.3301 12.0597 26.0391 10.6948 25.4737C9.3299 24.9084 8.08971 24.0797 7.04505 23.035C6.00039 21.9904 5.17172 20.7502 4.60636 19.3853C4.04099 18.0204 3.75 16.5574 3.75 15.0801C3.75 12.0964 4.93526 9.23491 7.04505 7.12513C9.15483 5.01534 12.0163 3.83008 15 3.83008C17.9837 3.83008 20.8452 5.01534 22.955 7.12513C25.0647 9.23491 26.25 12.0964 26.25 15.0801Z" stroke="#555555" stroke-width="1.5" stroke-linecap="round" stroke-linejoin="round"/>
</svg>
