<svg width="101" height="40" viewBox="0 0 101 40" fill="none" xmlns="http://www.w3.org/2000/svg">
<path d="M37.3821 0.345337H31.8281V39.0052H37.3821V0.345337Z" fill="#A586F8"/>
<path d="M47.7219 10.5601H42.168V39.0052H47.7219V10.5601Z" fill="#A586F8"/>
<path d="M44.9279 6.57962C46.6818 6.57962 48.2347 5.16191 48.2347 3.28981C48.2347 1.4177 46.7 0 44.9279 0C43.1557 0 41.6211 1.47223 41.6211 3.28981C41.6211 5.10738 43.1557 6.57962 44.9279 6.57962Z" fill="#A586F8"/>
<path d="M62.7981 39.5505C69.065 39.5505 74.7838 37.1513 74.7838 30.8443C74.7838 24.5373 71.3123 24.1193 66.7081 23.0287L61.3182 21.8291C58.34 21.1748 57.0793 19.9752 57.0793 17.994C57.0793 16.0129 59.1074 14.268 62.8529 14.268C66.5985 14.268 68.8458 15.4131 69.3391 18.921H74.0164C73.7424 13.0684 69.6132 9.9967 62.7981 9.9967C55.9831 9.9967 51.6894 12.9048 51.6894 18.0849C51.6894 23.265 54.1011 24.6464 59.4911 25.9005L64.8262 27.1001C67.512 27.6999 69.1198 28.6269 69.1198 30.9352C69.1198 33.2435 66.3609 35.261 62.8529 35.261C59.3449 35.261 56.3119 34.0069 55.8734 30.499H50.8672C51.0316 36.6787 55.9282 39.5323 62.7981 39.5323" fill="#A586F8"/>
<path d="M88.2122 39.5505C94.4791 39.5505 100.198 37.1513 100.198 30.8443C100.198 24.5373 96.7264 24.1193 92.1221 23.0287L86.7322 21.8291C83.7541 21.1748 82.4934 19.9752 82.4934 17.994C82.4934 16.0129 84.5214 14.268 88.267 14.268C92.0125 14.268 94.2598 15.4131 94.7531 18.921H99.4305C99.1564 13.0684 95.0272 9.9967 88.2122 9.9967C81.3971 9.9967 77.1034 12.9048 77.1034 18.0849C77.1034 23.265 79.5152 24.6464 84.9051 25.9005L90.2402 27.1001C92.926 27.6999 94.5339 28.6269 94.5339 30.9352C94.5339 33.2435 91.7933 35.261 88.267 35.261C84.7407 35.261 81.726 34.0069 81.2875 30.499H76.2812C76.4457 36.6787 81.3423 39.5323 88.2122 39.5323" fill="#A586F8"/>
<path d="M14.2696 34.6248C19.1114 34.6248 22.6925 31.026 22.6925 24.8099C22.6925 18.5938 19.2393 14.9404 14.2148 14.9404C9.19027 14.9404 5.62744 19.1027 5.62744 23.5376V25.9186C5.62744 30.408 9.02583 34.6248 14.2696 34.6248ZM0 0.345314H5.62744V17.3215C7.23528 12.7775 11.0356 9.94211 16.1698 9.94211C23.4781 9.94211 28.5392 15.7584 28.5392 24.7372C28.5392 33.716 23.405 39.5322 16.1698 39.5322C8.93448 39.5322 7.25355 36.6423 5.62744 32.1529V38.9688H0V0.30896V0.345314Z" fill="#A586F8"/>
</svg>
