<svg width="39" height="39" viewBox="0 0 39 39" fill="none" xmlns="http://www.w3.org/2000/svg">
<rect x="1.02769" y="1.01304" width="36.0125" height="36.0125" rx="18.0063" stroke="white" stroke-width="2.0007"/>
<g clip-path="url(#clip0_2353_1186)">
<path d="M10.3048 15.9902H14.0522V28.0207H10.3048V15.9902ZM12.1785 10.0127C13.3772 10.0127 14.3492 10.9846 14.3492 12.178C14.3492 13.3713 13.3772 14.3487 12.1785 14.3487C10.9798 14.3487 10.0078 13.3767 10.0078 12.178C10.0078 10.9792 10.9798 10.0127 12.1785 10.0127Z" fill="white"/>
<path d="M16.3906 15.9899H19.976V17.6368H20.0246C20.5268 16.6918 21.7471 15.6929 23.5668 15.6929C27.352 15.6929 28.054 18.1821 28.054 21.422V28.0204H24.3174V22.1725C24.3174 20.774 24.2904 18.9813 22.3735 18.9813C20.4566 18.9813 20.1272 20.4986 20.1272 22.0699V28.0204H16.3906V15.9899Z" fill="white"/>
</g>
<defs>
<clipPath id="clip0_2353_1186">
<rect width="18.0512" height="18.0134" fill="white" transform="translate(10.0078 10.0127)"/>
</clipPath>
</defs>
</svg>
