<svg width="34" height="34" viewBox="0 0 34 34" fill="none" xmlns="http://www.w3.org/2000/svg">
<rect width="34" height="34" rx="17" fill="#E0D5FD"/>
<path d="M14.2422 19.7441L19.7422 14.2441M25.2422 16.9951C25.2422 18.1574 24.6647 19.1859 23.7819 19.8083C23.877 20.3517 23.8397 20.9099 23.6733 21.4359C23.5068 21.9618 23.2162 22.4399 22.8259 22.8296C22.4361 23.22 21.958 23.5107 21.4321 23.6772C20.9062 23.8436 20.3479 23.8808 19.8045 23.7857C19.4876 24.2372 19.0665 24.6056 18.5769 24.8598C18.0874 25.1139 17.5438 25.2464 16.9922 25.246C15.8299 25.246 14.8014 24.6685 14.1799 23.7857C13.6365 23.8808 13.0782 23.8436 12.5523 23.6772C12.0263 23.5107 11.5483 23.22 11.1585 22.8296C10.7681 22.4398 10.4773 21.9615 10.3109 21.4354C10.1444 20.9094 10.1073 20.3509 10.2024 19.8074C9.75106 19.4904 9.38269 19.0693 9.12851 18.5797C8.87433 18.0902 8.74182 17.5466 8.74219 16.9951C8.74219 15.8327 9.31969 14.8042 10.2024 14.1827C10.1073 13.6392 10.1444 13.0808 10.3109 12.5547C10.4773 12.0286 10.7681 11.5504 11.1585 11.1605C11.5483 10.7703 12.0265 10.4797 12.5524 10.3134C13.0783 10.1472 13.6366 10.1101 14.1799 10.2053C14.4967 9.7537 14.9178 9.38511 15.4073 9.13076C15.8969 8.87641 16.4405 8.7438 16.9922 8.74414C18.1545 8.74414 19.183 9.32164 19.8045 10.2044C20.3479 10.1093 20.9062 10.1465 21.4321 10.3129C21.958 10.4794 22.4361 10.7701 22.8259 11.1605C23.2163 11.5504 23.5071 12.0286 23.6735 12.5547C23.8399 13.0808 23.8771 13.6392 23.7819 14.1827C24.2333 14.4997 24.6017 14.9208 24.8559 15.4104C25.11 15.8999 25.2426 16.4435 25.2422 16.9951ZM14.9297 14.9316H14.937V14.9381H14.9297V14.9316ZM15.2734 14.9316C15.2734 15.0228 15.2372 15.1102 15.1728 15.1747C15.1083 15.2392 15.0209 15.2754 14.9297 15.2754C14.8385 15.2754 14.7511 15.2392 14.6866 15.1747C14.6222 15.1102 14.5859 15.0228 14.5859 14.9316C14.5859 14.8405 14.6222 14.753 14.6866 14.6886C14.7511 14.6241 14.8385 14.5879 14.9297 14.5879C15.0209 14.5879 15.1083 14.6241 15.1728 14.6886C15.2372 14.753 15.2734 14.8405 15.2734 14.9316ZM19.0547 19.0566H19.062V19.064H19.0547V19.0566ZM19.3984 19.0566C19.3984 19.1478 19.3622 19.2352 19.2978 19.2997C19.2333 19.3642 19.1459 19.4004 19.0547 19.4004C18.9635 19.4004 18.8761 19.3642 18.8116 19.2997C18.7472 19.2352 18.7109 19.1478 18.7109 19.0566C18.7109 18.9655 18.7472 18.878 18.8116 18.8136C18.8761 18.7491 18.9635 18.7129 19.0547 18.7129C19.1459 18.7129 19.2333 18.7491 19.2978 18.8136C19.3622 18.878 19.3984 18.9655 19.3984 19.0566Z" stroke="#555555" stroke-width="1.375" stroke-linecap="round" stroke-linejoin="round"/>
</svg>
