<svg width="34" height="34" viewBox="0 0 34 34" fill="none" xmlns="http://www.w3.org/2000/svg">
<rect width="34" height="34" rx="17" fill="#E0D5FD"/>
<path d="M17 11V17H21.5M26 17C26 18.1819 25.7672 19.3522 25.3149 20.4442C24.8626 21.5361 24.1997 22.5282 23.364 23.364C22.5282 24.1997 21.5361 24.8626 20.4442 25.3149C19.3522 25.7672 18.1819 26 17 26C15.8181 26 14.6478 25.7672 13.5558 25.3149C12.4639 24.8626 11.4718 24.1997 10.636 23.364C9.80031 22.5282 9.13738 21.5361 8.68508 20.4442C8.23279 19.3522 8 18.1819 8 17C8 14.6131 8.94821 12.3239 10.636 10.636C12.3239 8.94821 14.6131 8 17 8C19.3869 8 21.6761 8.94821 23.364 10.636C25.0518 12.3239 26 14.6131 26 17Z" stroke="#555555" stroke-width="1.5" stroke-linecap="round" stroke-linejoin="round"/>
</svg>
