<svg width="126" height="29" viewBox="0 0 126 29" fill="none" xmlns="http://www.w3.org/2000/svg">
<path d="M121.004 21.6695C120.537 21.6712 120.074 21.7653 119.643 21.9464C119.212 22.1276 118.821 22.3921 118.492 22.7249C118.163 23.0577 117.903 23.4523 117.727 23.8861C117.55 24.3198 117.46 24.7843 117.463 25.2528C117.46 25.7213 117.55 26.1857 117.727 26.6194C117.903 27.0532 118.163 27.4478 118.492 27.7806C118.821 28.1134 119.212 28.378 119.643 28.5591C120.074 28.7402 120.537 28.8343 121.004 28.836C122.958 28.836 124.545 27.2309 124.545 25.2528C124.548 24.7843 124.459 24.3198 124.282 23.8861C124.105 23.4523 123.845 23.0577 123.516 22.7249C123.187 22.3921 122.796 22.1276 122.365 21.9464C121.934 21.7653 121.472 21.6712 121.004 21.6695ZM109.351 18.9021C109.351 16.1913 107.062 13.9967 104.238 13.9967C101.414 13.9967 99.1255 16.1947 99.1255 18.9021C99.1255 21.6095 101.418 23.8041 104.241 23.8041C107.065 23.8041 109.351 21.6095 109.351 18.9021ZM109.371 9.36777H115.011V28.4331H109.371V27.2142C107.726 28.3522 105.775 28.9609 103.776 28.9593C98.2851 28.9593 93.8336 24.4568 93.8336 18.9021C93.8336 13.3473 98.2851 8.84494 103.776 8.84494C105.853 8.84494 107.776 9.48766 109.371 10.59V9.36777ZM64.2179 11.8521V9.37111H58.441V28.4331H64.2312V19.5315C64.2312 16.5277 67.4469 14.9159 69.6793 14.9159H69.7458V9.37111C67.4536 9.37111 65.3507 10.3635 64.2179 11.8521ZM49.827 18.9021C49.827 16.1913 47.5382 13.9967 44.7145 13.9967C41.8908 13.9967 39.6019 16.1947 39.6019 18.9021C39.6019 21.6095 41.8941 23.8041 44.7178 23.8041C47.5415 23.8041 49.827 21.6095 49.827 18.9021ZM49.847 9.36777H55.491V28.4331H49.847V27.2142C48.2524 28.3132 46.329 28.9593 44.2527 28.9593C38.7614 28.9593 34.31 24.4568 34.31 18.9021C34.31 13.3473 38.7614 8.84494 44.2527 8.84494C46.329 8.84494 48.2524 9.48766 49.847 10.59V9.36777ZM83.8078 8.85826C81.5555 8.85826 79.4227 9.56426 77.9943 11.5157V9.37111H72.3768V28.4331H78.064V18.4159C78.064 15.5186 79.9842 14.0966 82.2996 14.0966C84.7778 14.0966 86.2063 15.5952 86.2063 18.3759V28.4331H91.8404V16.3112C91.8404 11.8754 88.3523 8.85826 83.8078 8.85826ZM26.0913 28.4331H31.9978V0.875804H26.0913V28.4331ZM0.146484 28.4398H6.40181V0.869141H0.149806L0.146484 28.4398ZM22.0252 0.869141C22.0252 6.83683 19.7264 12.3916 15.627 16.5177L24.2709 28.4398H16.5472L7.15591 15.4853L9.58097 13.6471C11.5552 12.1586 13.1547 10.2279 14.2518 8.00925C15.3489 5.79057 15.9131 3.34541 15.8994 0.869141H22.0185H22.0252Z" fill="#555555"/>
</svg>
